# xmcd
#
# Track frame offsets:
#	150
#	16115
#	34427
#	55520
#	76352
#	84061
#	108472
#	137620
#	161219
#	175967
#	192315
#	205374
#	237514
#
# Disc length: 3564 seconds
#
# Revision: 2
# Processed by: cddbd v1.5.2PL0 Copyright (c) Steve Scherf et al.
# Submitted via: audiograbber 1.83.01
#
DISCID=a70dea0d
DTITLE=Rebecca Gablé - Das zweite Königreich - CD2
DYEAR=2007
DGENRE=Hörspiel
TTITLE0=Helmsby, Mai 1065
TTITLE1=Rouen, Juni 1065
TTITLE2=Helmsby, Juli 1065
TTITLE3=Rouen, Januar 1066
TTITLE4=York
TTITLE5=Rouen
TTITLE6=Britford
TTITLE7=Rouen. März 1066
TTITLE8=London, September 1066
TTITLE9=Stamford Bridge, St. Valery, London, September 1066
TTITLE10=Hastings, London - September, Oktober 1066
TTITLE11=Hastings, 14. Oktober 1066
TTITLE12=Hastings, 15. Oktober 1066
EXTD=
EXTT0=
EXTT1=
EXTT2=
EXTT3=
EXTT4=
EXTT5=
EXTT6=
EXTT7=
EXTT8=
EXTT9=
EXTT10=
EXTT11=
EXTT12=
PLAYORDER=
